
Genre:Comedy | Drama
Language:English  http://www.imdb.com/title/tt1242544/
Source:DVD


Format : MPEG-4
Format profile : Base Media / Version 2
Codec ID : mp42
File size : 855 MiB
Duration : 1h 25mn
Overall bit rate : 1 403 Kbps


Video
ID : 1
Format : MPEG-4 Visual
Format profile : Advanced Simple@L5
Format settings, BVOP : No
Format settings, QPel : Yes
Format settings, GMC : No warppoints
Format settings, Matrix : Default (H.263)
Codec ID : 20
Duration : 1h 25mn
Bit rate mode : Constant
Bit rate : 1 179 Kbps
Nominal bit rate : 64.0 Kbps
Width : 720 pixels
Height : 304 pixels
Display aspect ratio : 2.35:1
Frame rate mode : Constant
Frame rate : 23.976 fps
Color space : YUV
Chroma subsampling : 4:2:0
Bit depth : 8 bits
Scan type : Progressive
Bits/(Pixel*Frame) : 0.225
Stream size : 719 MiB (84%)
Writing library : XviD 1.2.1 (UTC 2008-12-04)

Audio
ID : 2
Format : AAC
Format/Info : Advanced Audio Codec
Format version : Version 4
Format profile : LC
Codec ID : 40
Duration : 1h 25mn
Bit rate mode : Constant
Bit rate : 224 Kbps
Channel(s) : 2 channels
Channel positions : Front: L R
Sampling rate : 48.0 KHz
Stream size : 134 MiB (16%)
Language : English


Plot:
This unpredictable story follows an agitated fast-food employee, Joe, who's reached his breaking point from being harassed and tormented by his boss

